# xmcd
#
# Track frame offsets:
#	150
#	15463
#	30476
#	48157
#	66422
#	88240
#	103834
#	112229
#	137144
#	153063
#	172172
#	180701
#	199958
#
# Disc length: 2941 seconds
#
# Revision: 2
# Processed by: cddbd v1.5.2PL0 Copyright (c) Steve Scherf et al.
# Submitted via: audiograbber 1.83.01
#
DISCID=b60b7b0d
DTITLE=Wrinkle Neck Mules - Minor Enough
DYEAR=2002
DGENRE=Alternative Country
TTITLE0=No Consolation
TTITLE1=Minor Enough
TTITLE2=Failure Of Liver
TTITLE3=Whiskey Jars
TTITLE4=Sunday Special
TTITLE5=Discarded
TTITLE6=Here But Missing
TTITLE7=Big Dipper
TTITLE8=17 Miles Of Bourbon
TTITLE9=Pale Colored Hue
TTITLE10=Wandering Valley Prelude
TTITLE11=Head Of Stream
TTITLE12=Gold Dust Twin
EXTD=
EXTT0=
EXTT1=
EXTT2=
EXTT3=
EXTT4=
EXTT5=
EXTT6=
EXTT7=
EXTT8=
EXTT9=
EXTT10=
EXTT11=
EXTT12=
PLAYORDER=
